<?xml version="1.0" encoding="UTF-8"?>
<svg xmlns="http://www.w3.org/2000/svg" viewBox="0 0 24 24" width="512" height="512">
	<path d="M7,0h-3C1.79,0,0,1.79,0,4v3c0,2.21,1.79,4,4,4h3c2.21,0,4-1.79,4-4v-3C11,1.79,9.21,0,7,0Zm2,7c0,1.1-.9,2-2,2h-3c-1.1,0-2-.9-2-2v-3c0-1.1,.9-2,2-2h3c1.1,0,2,.9,2,2v3Zm11,6h-3c-2.21,0-4,1.79-4,4v3c0,2.21,1.79,4,4,4h3c2.21,0,4-1.79,4-4v-3c0-2.21-1.79-4-4-4Zm2,7c0,1.1-.9,2-2,2h-3c-1.1,0-2-.9-2-2v-3c0-1.1,.9-2,2-2h3c1.1,0,2,.9,2,2v3ZM13,5c0-1.06,.44-2.05,1.25-2.78l2.07-1.95c.4-.38,1.03-.36,1.41,.04,.38,.4,.36,1.04-.04,1.41l-2.08,1.95c-.11,.1-.2,.21-.28,.32h3.67c2.21,0,4,1.79,4,4v2c0,.55-.45,1-1,1s-1-.45-1-1v-2c0-1.1-.9-2-2-2h-3.67c.08,.11,.17,.21,.27,.31l2.09,1.96c.4,.38,.42,1.01,.04,1.41-.2,.21-.46,.31-.73,.31-.25,0-.49-.09-.69-.27l-2.08-1.95c-.79-.73-1.24-1.72-1.24-2.77Zm-2,14c0,1.06-.44,2.04-1.25,2.78l-2.07,1.95c-.19,.18-.44,.27-.69,.27-.27,0-.53-.11-.73-.31-.38-.4-.36-1.04,.04-1.41l2.08-1.95c.11-.1,.2-.21,.28-.32h-3.67c-2.21,0-4-1.79-4-4v-2c0-.55,.45-1,1-1s1,.45,1,1v2c0,1.1,.9,2,2,2h3.67c-.08-.11-.17-.21-.27-.31l-2.09-1.96c-.4-.38-.42-1.01-.04-1.41,.38-.4,1.01-.42,1.41-.04l2.08,1.95c.79,.73,1.24,1.72,1.24,2.77Z" fill="#ffffff"/>
</svg>
