<svg xmlns="http://www.w3.org/2000/svg" version="1.1" xmlns:xlink="http://www.w3.org/1999/xlink" xmlns:svgjs="http://svgjs.com/svgjs" width="256" height="256" x="0" y="0" viewBox="0 0 512 512" style="enable-background:new 0 0 512 512" xml:space="preserve">
	<g>
		<g>
			<path d="M490.667,96c0-17.673-14.327-32-32-32h-80.555C364.632,25.757,328.549,0.13,288,0h-64   c-40.549,0.13-76.632,25.757-90.112,64H53.333c-17.673,0-32,14.327-32,32l0,0c0,17.673,14.327,32,32,32H64v266.667   C64,459.468,116.532,512,181.333,512h149.333C395.468,512,448,459.468,448,394.667V128h10.667   C476.34,128,490.667,113.673,490.667,96z M384,394.667C384,424.122,360.122,448,330.667,448H181.333   C151.878,448,128,424.122,128,394.667V128h256V394.667z" fill="#ffffff"></path>
			<path d="M202.667,384c17.673,0,32-14.327,32-32V224c0-17.673-14.327-32-32-32s-32,14.327-32,32v128   C170.667,369.673,184.994,384,202.667,384z" fill="#ffffff"></path>
			<path d="M309.333,384c17.673,0,32-14.327,32-32V224c0-17.673-14.327-32-32-32s-32,14.327-32,32v128   C277.333,369.673,291.66,384,309.333,384z" fill="#ffffff"></path>
		</g>
	</g>
</svg>