<?xml version="1.0" encoding="UTF-8"?>
<svg xmlns="http://www.w3.org/2000/svg" viewBox="0 0 24 24" width="512" height="512">
	<path d="M21.155,3.272,18.871.913A3.02,3.02,0,0,0,16.715,0H12A5.009,5.009,0,0,0,7.1,4H7A5.006,5.006,0,0,0,2,9V19a5.006,5.006,0,0,0,5,5h6a5.006,5.006,0,0,0,5-5v-.1A5.009,5.009,0,0,0,22,14V5.36A2.988,2.988,0,0,0,21.155,3.272ZM13,22H7a3,3,0,0,1-3-3V9A3,3,0,0,1,7,6v8a5.006,5.006,0,0,0,5,5h4A3,3,0,0,1,13,22Zm4-5H12a3,3,0,0,1-3-3V5a3,3,0,0,1,3-3h4V4a2,2,0,0,0,2,2h2v8A3,3,0,0,1,17,17Z"/>
</svg>
