<?xml version="1.0"?>
<svg xmlns="http://www.w3.org/2000/svg" xmlns:xlink="http://www.w3.org/1999/xlink" xmlns:svgjs="http://svgjs.com/svgjs" version="1.1" width="512px" height="512px" x="0" y="0" viewBox="0 0 24 24" style="enable-background:new 0 0 512 512" xml:space="preserve"><g><path d="m12 4a1 1 0 0 1 -1-1v-2a1 1 0 0 1 2 0v2a1 1 0 0 1 -1 1zm1 19v-2a1 1 0 0 0 -2 0v2a1 1 0 0 0 2 0zm-9-11a1 1 0 0 0 -1-1h-2a1 1 0 0 0 0 2h2a1 1 0 0 0 1-1zm20 0a1 1 0 0 0 -1-1h-2a1 1 0 0 0 0 2h2a1 1 0 0 0 1-1zm-6.621-7.285 1-1.731a1 1 0 0 0 -1.731-1l-1 1.731a1 1 0 0 0 .365 1.366.987.987 0 0 0 .5.135 1 1 0 0 0 .866-.501zm-10.03 17.3 1-1.731a1 1 0 0 0 -1.731-1l-1 1.731a1 1 0 0 0 .364 1.366.989.989 0 0 0 .5.135 1 1 0 0 0 .867-.498zm-2.27-14.028a1 1 0 0 0 -.364-1.366l-1.731-1a1 1 0 0 0 -1 1.731l1.731 1a1 1 0 0 0 1.366-.365zm17.3 10.031a1 1 0 0 0 -.364-1.367l-1.731-1a1 1 0 0 0 -1 1.731l1.731 1a.987.987 0 0 0 .5.135 1 1 0 0 0 .867-.499zm-14.392-12.939a1 1 0 0 0 .365-1.366l-1-1.731a1 1 0 0 0 -1.731 1l1 1.731a1 1 0 0 0 .866.5.987.987 0 0 0 .5-.134zm10.031 17.3a1 1 0 0 0 .364-1.366l-1-1.731a1 1 0 0 0 -1.731 1l1 1.731a1 1 0 0 0 1.367.364zm2.269-14.03 1.731-1a1 1 0 0 0 -1-1.731l-1.731 1a1 1 0 0 0 1 1.731zm-17.3 10.03 1.731-1a1 1 0 0 0 -1-1.731l-1.731 1a1 1 0 0 0 .5 1.866.987.987 0 0 0 .497-.132z" fill="#ffffff" data-original="#000000"/></g></svg>
