<?xml version="1.0" encoding="utf-8"?>
<svg xmlns="http://www.w3.org/2000/svg" version="1.1" width="256" height="256" viewBox="0 0 256 256" xmlns:bx="https://boxy-svg.com">
  <defs>
    <bx:export>
      <bx:file format="svg" href="#object-0" excluded="true"/>
    </bx:export>
  </defs>
  <g style="stroke: none; stroke-width: 0; stroke-dasharray: none; stroke-linecap: butt; stroke-linejoin: miter; stroke-miterlimit: 10; fill: none; fill-rule: nonzero; opacity: 1;" transform="translate(1.4065934065934016 1.4065934065934016) scale(2.81 2.81)">
    <path d="M 77.524 17.28 L 62.173 1.332 C 61.347 0.473 60.247 0 59.078 0 L 18.102 0 C 15.688 0 13.725 2.04 13.725 4.548 L 13.725 85.452 C 13.725 87.96 15.688 90 18.102 90 L 74.428 90 C 76.842 90 78.807 87.96 78.807 85.452 L 78.807 20.496 C 78.807 19.281 78.351 18.138 77.524 17.28 Z M 61.737 5.121 C 54.21 13.427 66.349 26.039 73.876 17.733 L 62.966 17.733 C 62.288 17.733 61.738 17.16 61.738 16.456 L 61.738 5.121 L 61.737 5.121 Z M 74.428 87 L 18.102 87 C 17.28 87 16.612 86.306 16.612 85.452 L 16.612 4.548 C 16.612 3.694 17.28 3 18.102 3 L 58.85 3 L 58.85 16.456 C 58.85 18.814 60.696 20.733 62.966 20.733 L 75.919 20.733 L 75.919 85.452 C 75.919 86.306 75.25 87 74.428 87 Z" style="stroke: none; stroke-width: 1; stroke-dasharray: none; stroke-linecap: butt; stroke-linejoin: miter; stroke-miterlimit: 10; fill: rgb(0, 0, 0); fill-rule: nonzero; opacity: 1;" stroke-linecap="round"/>
    <path d="M 68.193 34.682 L 41.808 34.682 C 40.979 34.682 40.308 33.706 40.308 32.5 C 40.308 31.295 40.979 30.319 41.808 30.319 L 68.193 30.319 C 69.021 30.319 69.693 31.295 69.693 32.5 C 69.693 33.706 69.021 34.682 68.193 34.682 Z" style="stroke: none; stroke-width: 1; stroke-dasharray: none; stroke-linecap: butt; stroke-linejoin: miter; stroke-miterlimit: 10; fill: rgb(0, 0, 0); fill-rule: nonzero; opacity: 1;" stroke-linecap="round"/>
    <path d="M 34.456 34.682 L 21.807 34.682 C 20.978 34.682 20.307 33.706 20.307 32.5 C 20.307 31.295 20.978 30.319 21.807 30.319 L 34.456 30.319 C 35.285 30.319 35.956 31.295 35.956 32.5 C 35.956 33.706 35.285 34.682 34.456 34.682 Z" style="stroke: none; stroke-width: 1; stroke-dasharray: none; stroke-linecap: butt; stroke-linejoin: miter; stroke-miterlimit: 10; fill: rgb(0, 0, 0); fill-rule: nonzero; opacity: 1;" stroke-linecap="round"/>
    <linearGradient id="SVGID_1" gradientUnits="userSpaceOnUse" x1="21.8064" y1="19.2332" x2="42.2984" y2="19.2332">
      <stop offset="0" style="stop-color:rgb(255,255,255);stop-opacity: 1"/>
      <stop offset="1" style="stop-color:rgb(0,0,0);stop-opacity: 1"/>
    </linearGradient>
    <line x1="-10.246" y1="0" x2="10.246" y2="0" style="stroke: none; stroke-width: 1; stroke-dasharray: none; stroke-linecap: butt; stroke-linejoin: miter; stroke-miterlimit: 10; fill: url(#SVGID_1); fill-rule: nonzero; opacity: 1;" transform=" matrix(1 0 0 1 0 0) "/>
    <path d="M 42.298 22.29 L 21.807 22.29 C 20.978 22.29 20.307 21.271 20.307 20.012 C 20.307 18.752 20.978 17.733 21.807 17.733 L 42.299 17.733 C 43.128 17.733 43.799 18.752 43.799 20.012 C 43.799 21.271 43.127 22.29 42.298 22.29 Z" style="stroke: none; stroke-width: 1; stroke-dasharray: none; stroke-linecap: butt; stroke-linejoin: miter; stroke-miterlimit: 10; fill: rgb(0, 0, 0); fill-rule: nonzero; opacity: 1;" stroke-linecap="round"/>
    <path d="M 68.193 45.487 L 21.807 45.487 C 20.978 45.487 20.307 44.555 20.307 43.403 C 20.307 42.251 20.978 41.319 21.807 41.319 L 68.194 41.319 C 69.022 41.319 69.694 42.251 69.694 43.403 C 69.694 44.555 69.021 45.487 68.193 45.487 Z" style="stroke: none; stroke-width: 1; stroke-dasharray: none; stroke-linecap: butt; stroke-linejoin: miter; stroke-miterlimit: 10; fill: rgb(0, 0, 0); fill-rule: nonzero; opacity: 1;" stroke-linecap="round"/>
    <path d="M 48.191 55.319 L 21.807 55.319 C 20.978 55.319 20.307 54.385 20.307 53.235 C 20.307 52.085 20.978 51.151 21.807 51.151 L 48.192 51.151 C 49.02 51.151 49.692 52.085 49.692 53.235 C 49.692 54.385 49.02 55.319 48.191 55.319 Z" style="stroke: none; stroke-width: 1; stroke-dasharray: none; stroke-linecap: butt; stroke-linejoin: miter; stroke-miterlimit: 10; fill: rgb(0, 0, 0); fill-rule: nonzero; opacity: 1;" stroke-linecap="round"/>
    <path d="M 68.193 55.319 L 55.544 55.319 C 54.716 55.319 54.044 54.298 54.044 53.04 C 54.044 51.783 54.716 50.762 55.544 50.762 L 68.193 50.762 C 69.021 50.762 69.693 51.783 69.693 53.04 C 69.693 54.298 69.021 55.319 68.193 55.319 Z" style="stroke: none; stroke-width: 1; stroke-dasharray: none; stroke-linecap: butt; stroke-linejoin: miter; stroke-miterlimit: 10; fill: rgb(0, 0, 0); fill-rule: nonzero; opacity: 1;" stroke-linecap="round"/>
    <path d="M 68.193 66.319 L 21.807 66.319 C 20.978 66.319 20.307 65.211 20.307 63.846 C 20.307 62.48 20.978 61.372 21.807 61.372 L 68.194 61.372 C 69.022 61.372 69.694 62.48 69.694 63.846 C 69.694 65.211 69.021 66.319 68.193 66.319 Z" style="stroke: none; stroke-width: 1; stroke-dasharray: none; stroke-linecap: butt; stroke-linejoin: miter; stroke-miterlimit: 10; fill: rgb(0, 0, 0); fill-rule: nonzero; opacity: 1;" stroke-linecap="round"/>
    <path d="M 68.193 77.319 L 55.544 77.319 C 54.716 77.319 54.044 76.211 54.044 74.846 C 54.044 73.48 54.716 72.372 55.544 72.372 L 68.193 72.372 C 69.021 72.372 69.693 73.48 69.693 74.846 C 69.693 76.211 69.021 77.319 68.193 77.319 Z" style="stroke: none; stroke-width: 1; stroke-dasharray: none; stroke-linecap: butt; stroke-linejoin: miter; stroke-miterlimit: 10; fill: rgb(0, 0, 0); fill-rule: nonzero; opacity: 1;" stroke-linecap="round"/>
  </g>
  <rect x="205.128" y="56.342" width="14.222" height="189.812" rx="3" ry="3" style="stroke-miterlimit: 10;"/>
  <rect x="48.684" y="236.855" width="167.385" height="10.94" rx="3" ry="3" style="stroke-miterlimit: 10;"/>
  <rect x="43.761" y="7.658" width="11.487" height="237.402" rx="3" ry="3" style="stroke-miterlimit: 10;"/>
  <rect x="49.231" y="6.017" width="122.53" height="11.487" rx="3" ry="3" style="stroke-miterlimit: 10;" id="object-0"/>
</svg>