<svg xmlns="http://www.w3.org/2000/svg" viewBox="0 0 24 24">
  <path d="M23.632,14.256c-.275-.479-.888-.644-1.366-.367l-.977,.563c-.605-.652-1.393-1.126-2.289-1.331v-1.121c0-.553-.448-1-1-1s-1,.447-1,1v1.121c-.896,.205-1.685,.678-2.289,1.331l-.977-.563c-.477-.275-1.09-.111-1.366,.367-.275,.479-.111,1.09,.368,1.365l.983,.566c-.129,.418-.218,.853-.218,1.313s.089,.895,.218,1.313l-.983,.566c-.479,.275-.643,.887-.368,1.365,.185,.321,.521,.501,.868,.501,.169,0,.341-.043,.498-.134l.977-.563c.605,.652,1.393,1.126,2.289,1.331v1.121c0,.553,.448,1,1,1s1-.447,1-1v-1.121c.896-.205,1.685-.678,2.289-1.331l.977,.563c.157,.091,.329,.134,.498,.134,.346,0,.683-.18,.868-.501,.275-.479,.111-1.09-.368-1.365l-.983-.566c.129-.418,.218-.853,.218-1.313s-.089-.895-.218-1.313l.983-.566c.479-.275,.643-.887,.368-1.365Zm-5.632,5.744c-1.378,0-2.5-1.121-2.5-2.5s1.122-2.5,2.5-2.5,2.5,1.121,2.5,2.5-1.122,2.5-2.5,2.5ZM5,7h2.528c.154,0,.31,.036,.447,.105l3.156,1.578c.415,.207,.878,.316,1.341,.316h6.528c1.37,0,2.565,.925,2.906,2.249,.137,.534,.679,.856,1.217,.72,.535-.138,.857-.683,.719-1.218-.568-2.209-2.559-3.751-4.842-3.751v-2.172c0-.801-.312-1.555-.879-2.121l-1.828-1.828c-.566-.566-1.32-.879-2.122-.879h-5.171c-2.206,0-4,1.794-4,4v1C2.243,5,0,7.243,0,10v9c0,2.757,2.243,5,5,5h5c.552,0,1-.447,1-1s-.448-1-1-1H5c-1.654,0-3-1.346-3-3v-6H10c.552,0,1-.447,1-1s-.448-1-1-1H2v-1c0-1.654,1.346-3,3-3Zm2-3c0-1.103,.897-2,2-2h5v2c0,.552,.448,1,1,1h2v2h-4.528c-.154,0-.31-.036-.447-.105l-3.156-1.578c-.415-.207-.878-.316-1.341-.316h-.528v-1Z"/>
</svg>