<?xml version="1.0"?>
<svg xmlns="http://www.w3.org/2000/svg" xmlns:xlink="http://www.w3.org/1999/xlink" xmlns:svgjs="http://svgjs.com/svgjs" version="1.1" width="256" height="256" x="0" y="0" viewBox="0 0 24 24" style="enable-background:new 0 0 512 512" xml:space="preserve"><g><path d="M2.849,23.55a2.954,2.954,0,0,0,3.266-.644L12,17.053l5.885,5.853a2.956,2.956,0,0,0,2.1.881,3.05,3.05,0,0,0,1.17-.237A2.953,2.953,0,0,0,23,20.779V5a5.006,5.006,0,0,0-5-5H6A5.006,5.006,0,0,0,1,5V20.779A2.953,2.953,0,0,0,2.849,23.55Z" fill="#464b51" data-original="#000000"/></g></svg>
