<?xml version="1.0"?>
<svg xmlns="http://www.w3.org/2000/svg" xmlns:xlink="http://www.w3.org/1999/xlink" xmlns:svgjs="http://svgjs.com/svgjs" version="1.1" width="256" height="256" x="0" y="0" viewBox="0 0 24 24" style="enable-background:new 0 0 512 512" xml:space="preserve"><g><path d="M20.137,24a2.8,2.8,0,0,1-1.987-.835L12,17.051,5.85,23.169a2.8,2.8,0,0,1-3.095.609A2.8,2.8,0,0,1,1,21.154V5A5,5,0,0,1,6,0H18a5,5,0,0,1,5,5V21.154a2.8,2.8,0,0,1-1.751,2.624A2.867,2.867,0,0,1,20.137,24ZM6,2A3,3,0,0,0,3,5V21.154a.843.843,0,0,0,1.437.6h0L11.3,14.933a1,1,0,0,1,1.41,0l6.855,6.819a.843.843,0,0,0,1.437-.6V5a3,3,0,0,0-3-3Z" fill="white" data-original="#000000"/></g></svg>
