<?xml version="1.0" encoding="UTF-8"?>
<svg xmlns="http://www.w3.org/2000/svg" id="Layer_1" data-name="Layer 1" viewBox="0 0 24 24" width="512" height="512">
	<path d="m11.448,16.482c.227.757-.34,1.519-1.13,1.519h-1.829c-.79,0-1.357-.762-1.13-1.519l.757-2.524c.171-.568.694-.958,1.287-.958s1.117.389,1.287.958l.757,2.524Zm10.455-8.324v10.343c0,3.033-2.468,5.5-5.5,5.5H7.404c-3.032,0-5.5-2.467-5.5-5.5V5.5C1.904,2.467,4.371,0,7.404,0h6.344c1.47,0,2.851.572,3.889,1.611l2.657,2.657c1.038,1.038,1.61,2.419,1.61,3.889Zm-3,10.343v-9.5h-4c-1.105,0-2-.895-2-2V3h-2v1.5c0,.829-.672,1.5-1.5,1.5s-1.5-.671-1.5-1.5v-1.5h-.5c-1.379,0-2.5,1.122-2.5,2.5v13c0,1.378,1.121,2.5,2.5,2.5h9c1.379,0,2.5-1.122,2.5-2.5Zm-9.5-7.5c.828,0,1.5-.672,1.5-1.5s-.672-1.5-1.5-1.5-1.5.672-1.5,1.5.672,1.5,1.5,1.5Z" fill="#464b51"/>
</svg>
